<svg width="1513" height="2289" xmlns="http://www.w3.org/2000/svg" xmlns:xlink="http://www.w3.org/1999/xlink" xml:space="preserve" overflow="hidden"><defs><linearGradient x1="1920.45" y1="-619.668" x2="1920.45" y2="2405.33" gradientUnits="userSpaceOnUse" spreadMethod="reflect" id="fill0"><stop offset="0" stop-color="#FCFFA4"/><stop offset="0.25" stop-color="#FCFFA4"/><stop offset="0.4" stop-color="#F98E09"/><stop offset="0.55" stop-color="#BC3754"/><stop offset="0.7" stop-color="#57106E"/><stop offset="1" stop-color="#000004"/></linearGradient><linearGradient x1="1920.45" y1="2475.18" x2="1920.45" y2="1672.18" gradientUnits="userSpaceOnUse" spreadMethod="reflect" id="fill1"><stop offset="0" stop-color="#FCFFA4"/><stop offset="0.2" stop-color="#FCFFA4"/><stop offset="0.4" stop-color="#F98E09"/><stop offset="0.55" stop-color="#BC3754"/><stop offset="0.7" stop-color="#57106E"/><stop offset="1" stop-color="#000004"/></linearGradient></defs><g transform="translate(-1164 -73)"><path d="M1909.92 362.391 1502.47 1563.81 2327.22 1563.81 1911.15 362.391ZM1918.54 139.588C1945.62 139.588 1967.57 140.203 1984.39 141.434 2001.22 142.665 2014.96 144.922 2025.63 148.204 2036.3 151.487 2044.3 156.206 2049.63 162.36 2054.97 168.515 2059.28 176.106 2062.56 185.133L2521.71 1465.33C2529.91 1489.13 2536.68 1509.23 2542.02 1525.65 2547.35 1542.06 2551.45 1556.01 2554.33 1567.5 2557.2 1578.99 2559.05 1590.27 2559.87 1601.35 2560.69 1612.43 2561.1 1622.48 2561.1 1631.51L2561.1 1657.36C2561.1 1685.26 2553.92 1705.98 2539.56 1719.52 2525.19 1733.06 2507.76 1739.83 2487.24 1739.83L1353.53 1739.83C1332.19 1739.83 1314.75 1733.06 1301.21 1719.52 1287.67 1705.98 1280.9 1685.26 1280.9 1657.36L1280.9 1631.51C1280.9 1620.02 1281.31 1609.35 1282.13 1599.5 1282.95 1589.66 1285 1578.78 1288.29 1566.88 1291.57 1554.98 1295.67 1541.24 1300.6 1525.65 1305.52 1510.05 1312.09 1490.77 1320.29 1467.79L1780.67 183.902C1783.95 174.875 1788.26 167.489 1793.6 161.745 1798.93 156.001 1806.52 151.487 1816.37 148.204 1826.22 144.922 1839.55 142.665 1856.37 141.434 1873.2 140.203 1893.92 139.588 1918.54 139.588Z" fill="url(#fill0)" fill-rule="evenodd"/><text fill="#000000" fill-opacity="0" font-family="Arial,Arial_MSFontService,sans-serif" font-size="1600.24" x="1280.9" y="1539.8">Δ</text><path d="M2058.76 1850.15 2150.56 1850.15 2150.56 2289.83 2058.76 2289.83ZM1690.76 1850.15 1986.06 1850.15 1986.06 1926.26 1782.56 1926.26 1782.56 2028.5 1966.79 2028.5 1966.79 2102 1782.56 2102 1782.56 2213.72 1986.06 2213.72 1986.06 2289.83 1690.76 2289.83ZM2381.47 1844.59C2411.96 1844.59 2439.73 1849.17 2464.77 1858.31 2489.82 1867.46 2509.85 1881.4 2524.88 1900.13 2539.9 1918.85 2547.42 1942.7 2547.42 1971.66L2453.34 1971.66C2453.56 1952.94 2446.59 1938.94 2432.43 1929.69 2418.28 1920.43 2401.29 1915.81 2381.47 1915.81 2362.09 1915.81 2345.92 1919.45 2332.96 1926.75 2320.01 1934.04 2313.53 1945.31 2313.53 1960.56 2313.53 1969.27 2316.25 1976.95 2321.7 1983.59 2327.14 1990.23 2337.27 1996.71 2352.07 2003.02 2366.88 2009.34 2388.33 2016.53 2416.43 2024.58 2449.75 2034.38 2477.02 2044.67 2498.25 2055.45 2519.49 2066.23 2535.22 2080.17 2545.46 2097.27 2555.69 2114.36 2560.81 2136.85 2560.81 2164.72 2560.81 2195.86 2553.13 2221.02 2537.78 2240.18 2522.43 2259.34 2501.69 2273.39 2475.55 2282.32 2449.42 2291.25 2419.8 2295.71 2386.7 2295.71 2353.82 2295.71 2323.93 2290.97 2297.03 2281.5 2270.14 2272.03 2248.85 2256.95 2233.17 2236.26 2217.49 2215.57 2209.65 2188.57 2209.65 2155.25L2303.4 2155.25C2304.27 2172.23 2308.36 2185.57 2315.65 2195.26 2322.95 2204.95 2332.86 2211.87 2345.38 2216.01 2357.9 2220.14 2372.22 2222.21 2388.33 2222.21 2403.8 2222.21 2417.41 2220.36 2429.17 2216.66 2440.93 2212.96 2450.13 2207.3 2456.77 2199.67 2463.41 2192.05 2466.73 2182.25 2466.73 2170.27 2466.73 2158.73 2463.96 2149.15 2458.4 2141.53 2452.85 2133.91 2442.89 2126.99 2428.51 2120.79 2414.14 2114.58 2393.89 2107.88 2367.75 2100.7 2337.48 2091.98 2311.3 2082.4 2289.19 2071.95 2267.09 2061.5 2249.99 2047.99 2237.91 2031.44 2225.82 2014.89 2219.78 1993.33 2219.78 1966.76 2219.78 1938.24 2226.69 1914.99 2240.52 1897.02 2254.35 1879.06 2273.46 1865.83 2297.85 1857.33 2322.24 1848.84 2350.11 1844.59 2381.47 1844.59ZM1451.47 1844.59C1481.96 1844.59 1509.73 1849.17 1534.77 1858.31 1559.82 1867.46 1579.85 1881.4 1594.88 1900.13 1609.9 1918.85 1617.42 1942.7 1617.42 1971.66L1523.34 1971.66C1523.56 1952.94 1516.59 1938.94 1502.43 1929.69 1488.28 1920.43 1471.29 1915.81 1451.47 1915.81 1432.09 1915.81 1415.92 1919.45 1402.97 1926.75 1390.01 1934.04 1383.53 1945.31 1383.53 1960.56 1383.53 1969.27 1386.25 1976.95 1391.7 1983.59 1397.14 1990.23 1407.27 1996.71 1422.07 2003.02 1436.88 2009.34 1458.33 2016.53 1486.43 2024.58 1519.75 2034.38 1547.02 2044.67 1568.26 2055.45 1589.49 2066.23 1605.22 2080.17 1615.46 2097.27 1625.69 2114.36 1630.81 2136.85 1630.81 2164.72 1630.81 2195.86 1623.13 2221.02 1607.78 2240.18 1592.43 2259.34 1571.68 2273.39 1545.55 2282.32 1519.42 2291.25 1489.8 2295.71 1456.7 2295.71 1423.82 2295.71 1393.93 2290.97 1367.03 2281.5 1340.14 2272.03 1318.85 2256.95 1303.17 2236.26 1287.49 2215.57 1279.65 2188.57 1279.65 2155.25L1373.4 2155.25C1374.27 2172.23 1378.36 2185.57 1385.65 2195.26 1392.95 2204.95 1402.86 2211.87 1415.38 2216.01 1427.9 2220.14 1442.22 2222.21 1458.33 2222.21 1473.8 2222.21 1487.41 2220.36 1499.17 2216.66 1510.93 2212.96 1520.13 2207.3 1526.77 2199.67 1533.41 2192.05 1536.73 2182.25 1536.73 2170.27 1536.73 2158.73 1533.96 2149.15 1528.4 2141.53 1522.85 2133.91 1512.89 2126.99 1498.51 2120.79 1484.14 2114.58 1463.89 2107.88 1437.75 2100.7 1407.48 2091.98 1381.3 2082.4 1359.19 2071.95 1337.09 2061.5 1319.99 2047.99 1307.91 2031.44 1295.82 2014.89 1289.78 1993.33 1289.78 1966.76 1289.78 1938.24 1296.69 1914.99 1310.52 1897.02 1324.35 1879.06 1343.46 1865.83 1367.85 1857.33 1392.24 1848.84 1420.11 1844.59 1451.47 1844.59Z" fill="url(#fill1)" fill-rule="evenodd"/><text fill="#000000" fill-opacity="0" font-family="Arial,Arial_MSFontService,sans-serif" font-size="451.118" x="1279.65" y="2239.32">SEIS</text></g></svg>